HIERARCHY
ROOT Hips
{
  OFFSET 0.000000 95.000000 0.000000
  CHANNELS 6 Xposition Yposition Zposition Zrotation Xrotation Yrotation
  JOINT Spine
  {
    OFFSET 0.000000 10.000000 0.000000
    CHANNELS 3 Zrotation Xrotation Yrotation
    JOINT Spine1
    {
      OFFSET 0.000000 12.000000 0.000000
      CHANNELS 3 Zrotation Xrotation Yrotation
      JOINT Spine2
      {
        OFFSET 0.000000 12.000000 0.000000
        CHANNELS 3 Zrotation Xrotation Yrotation
        JOINT Neck
        {
          OFFSET 0.000000 10.000000 0.000000
          CHANNELS 3 Zrotation Xrotation Yrotation
          JOINT Head
          {
            OFFSET 0.000000 8.000000 0.000000
            CHANNELS 3 Zrotation Xrotation Yrotation
            End Site
            {
              OFFSET 0.000000 10.000000 0.000000
            }
          }
        }
        JOINT LeftShoulder
        {
          OFFSET 6.000000 8.000000 0.000000
          CHANNELS 3 Zrotation Xrotation Yrotation
          JOINT LeftArm
          {
            OFFSET 12.000000 0.000000 0.000000
            CHANNELS 3 Zrotation Xrotation Yrotation
            JOINT LeftForeArm
            {
              OFFSET 24.000000 0.000000 0.000000
              CHANNELS 3 Zrotation Xrotation Yrotation
              JOINT LeftHand
              {
                OFFSET 22.000000 0.000000 0.000000
                CHANNELS 3 Zrotation Xrotation Yrotation
                JOINT LeftHandThumb1
                {
                  OFFSET 1.800000 -1.400000 0.500000
                  CHANNELS 3 Zrotation Xrotation Yrotation
                  JOINT LeftHandThumb2
                  {
                    OFFSET 2.400000 0.000000 0.000000
                    CHANNELS 3 Zrotation Xrotation Yrotation
                    JOINT LeftHandThumb3
                    {
                      OFFSET 1.900000 0.000000 0.000000
                      CHANNELS 3 Zrotation Xrotation Yrotation
                      End Site
                      {
                        OFFSET 1.600000 0.000000 0.000000
                      }
                    }
                  }
                }
                JOINT LeftHandIndex1
                {
                  OFFSET 6.600000 1.200000 0.300000
                  CHANNELS 3 Zrotation Xrotation Yrotation
                  JOINT LeftHandIndex2
                  {
                    OFFSET 2.000000 0.000000 0.000000
                    CHANNELS 3 Zrotation Xrotation Yrotation
                    JOINT LeftHandIndex3
                    {
                      OFFSET 1.200000 0.000000 0.000000
                      CHANNELS 3 Zrotation Xrotation Yrotation
                      End Site
                      {
                        OFFSET 1.000000 0.000000 0.000000
                      }
                    }
                  }
                }
                JOINT LeftHandMiddle1
                {
                  OFFSET 7.200000 0.000000 0.300000
                  CHANNELS 3 Zrotation Xrotation Yrotation
                  JOINT LeftHandMiddle2
                  {
                    OFFSET 3.000000 0.000000 0.000000
                    CHANNELS 3 Zrotation Xrotation Yrotation
                    JOINT LeftHandMiddle3
                    {
                      OFFSET 2.000000 0.000000 0.000000
                      CHANNELS 3 Zrotation Xrotation Yrotation
                      End Site
                      {
                        OFFSET 1.600000 0.000000 0.000000
                      }
                    }
                  }
                }
                JOINT LeftHandRing1
                {
                  OFFSET 7.100000 -1.000000 0.400000
                  CHANNELS 3 Zrotation Xrotation Yrotation
                  JOINT LeftHandRing2
                  {
                    OFFSET 2.600000 0.000000 0.000000
                    CHANNELS 3 Zrotation Xrotation Yrotation
                    JOINT LeftHandRing3
                    {
                      OFFSET 1.600000 0.000000 0.000000
                      CHANNELS 3 Zrotation Xrotation Yrotation
                      End Site
                      {
                        OFFSET 1.300000 0.000000 0.000000
                      }
                    }
                  }
                }
                JOINT LeftHandPinky1
                {
                  OFFSET 6.500000 -2.000000 0.500000
                  CHANNELS 3 Zrotation Xrotation Yrotation
                  JOINT LeftHandPinky2
                  {
                    OFFSET 1.900000 0.000000 0.000000
                    CHANNELS 3 Zrotation Xrotation Yrotation
                    JOINT LeftHandPinky3
                    {
                      OFFSET 1.400000 0.000000 0.000000
                      CHANNELS 3 Zrotation Xrotation Yrotation
                      End Site
                      {
                        OFFSET 1.300000 0.000000 0.000000
                      }
                    }
                  }
                }
              }
            }
          }
        }
        JOINT RightShoulder
        {
          OFFSET -6.000000 8.000000 0.000000
          CHANNELS 3 Zrotation Xrotation Yrotation
          JOINT RightArm
          {
            OFFSET -12.000000 0.000000 0.000000
            CHANNELS 3 Zrotation Xrotation Yrotation
            JOINT RightForeArm
            {
              OFFSET -24.000000 0.000000 0.000000
              CHANNELS 3 Zrotation Xrotation Yrotation
              JOINT RightHand
              {
                OFFSET -22.000000 0.000000 0.000000
                CHANNELS 3 Zrotation Xrotation Yrotation
                JOINT RightHandThumb1
                {
                  OFFSET -1.800000 -1.400000 0.500000
                  CHANNELS 3 Zrotation Xrotation Yrotation
                  JOINT RightHandThumb2
                  {
                    OFFSET -2.400000 0.000000 0.000000
                    CHANNELS 3 Zrotation Xrotation Yrotation
                    JOINT RightHandThumb3
                    {
                      OFFSET -1.900000 0.000000 0.000000
                      CHANNELS 3 Zrotation Xrotation Yrotation
                      End Site
                      {
                        OFFSET -1.600000 0.000000 0.000000
                      }
                    }
                  }
                }
                JOINT RightHandIndex1
                {
                  OFFSET -6.600000 1.200000 0.300000
                  CHANNELS 3 Zrotation Xrotation Yrotation
                  JOINT RightHandIndex2
                  {
                    OFFSET -2.000000 0.000000 0.000000
                    CHANNELS 3 Zrotation Xrotation Yrotation
                    JOINT RightHandIndex3
                    {
                      OFFSET -1.200000 0.000000 0.000000
                      CHANNELS 3 Zrotation Xrotation Yrotation
                      End Site
                      {
                        OFFSET -1.000000 0.000000 0.000000
                      }
                    }
                  }
                }
                JOINT RightHandMiddle1
                {
                  OFFSET -7.200000 0.000000 0.300000
                  CHANNELS 3 Zrotation Xrotation Yrotation
                  JOINT RightHandMiddle2
                  {
                    OFFSET -3.000000 0.000000 0.000000
                    CHANNELS 3 Zrotation Xrotation Yrotation
                    JOINT RightHandMiddle3
                    {
                      OFFSET -2.000000 0.000000 0.000000
                      CHANNELS 3 Zrotation Xrotation Yrotation
                      End Site
                      {
                        OFFSET -1.600000 0.000000 0.000000
                      }
                    }
                  }
                }
                JOINT RightHandRing1
                {
                  OFFSET -7.100000 -1.000000 0.400000
                  CHANNELS 3 Zrotation Xrotation Yrotation
                  JOINT RightHandRing2
                  {
                    OFFSET -2.600000 0.000000 0.000000
                    CHANNELS 3 Zrotation Xrotation Yrotation
                    JOINT RightHandRing3
                    {
                      OFFSET -1.600000 0.000000 0.000000
                      CHANNELS 3 Zrotation Xrotation Yrotation
                      End Site
                      {
                        OFFSET -1.300000 0.000000 0.000000
                      }
                    }
                  }
                }
                JOINT RightHandPinky1
                {
                  OFFSET -6.500000 -2.000000 0.500000
                  CHANNELS 3 Zrotation Xrotation Yrotation
                  JOINT RightHandPinky2
                  {
                    OFFSET -1.900000 0.000000 0.000000
                    CHANNELS 3 Zrotation Xrotation Yrotation
                    JOINT RightHandPinky3
                    {
                      OFFSET -1.400000 0.000000 0.000000
                      CHANNELS 3 Zrotation Xrotation Yrotation
                      End Site
                      {
                        OFFSET -1.300000 0.000000 0.000000
                      }
                    }
                  }
                }
              }
            }
          }
        }
      }
    }
  }
  JOINT LeftUpLeg
  {
    OFFSET 10.000000 -5.000000 0.000000
    CHANNELS 3 Zrotation Xrotation Yrotation
    JOINT LeftLeg
    {
      OFFSET 0.000000 -42.000000 0.000000
      CHANNELS 3 Zrotation Xrotation Yrotation
      JOINT LeftFoot
      {
        OFFSET 0.000000 -42.000000 4.000000
        CHANNELS 3 Zrotation Xrotation Yrotation
        End Site
        {
          OFFSET 0.000000 0.000000 12.000000
        }
      }
    }
  }
  JOINT RightUpLeg
  {
    OFFSET -10.000000 -5.000000 0.000000
    CHANNELS 3 Zrotation Xrotation Yrotation
    JOINT RightLeg
    {
      OFFSET 0.000000 -42.000000 0.000000
      CHANNELS 3 Zrotation Xrotation Yrotation
      JOINT RightFoot
      {
        OFFSET 0.000000 -42.000000 4.000000
        CHANNELS 3 Zrotation Xrotation Yrotation
        End Site
        {
          OFFSET 0.000000 0.000000 12.000000
        }
      }
    }
  }
}
MOTION
Frames: 6
Frame Time: 0.033333
0.0000 95.0000 0.0000 0.0000 0.0000 0.0000 0.0000 0.0000 0.0000 0.0000 0.0000 0.0000 0.0000 0.0000 0.0000 0.0000 0.0000 0.0000 0.0000 0.0000 0.0000 0.0000 0.0000 0.0000 -79.5090 3.1901 3.8346 -13.2148 -1.5293 3.3811 -138.3828 -51.0616 143.0122 28.3601 -4.3846 5.4264 5.8584 0.0000 0.0000 4.3728 0.0000 0.0000 -33.3105 -0.3210 -16.0746 134.7101 0.0000 0.0000 27.2549 0.0000 0.0000 -21.8623 -2.5498 -17.9183 132.1754 0.0000 0.0000 30.8687 0.0000 0.0000 -12.7233 -3.9642 -18.3071 134.6521 0.0000 0.0000 33.8994 0.0000 0.0000 -2.7983 -5.8840 -18.3097 129.2964 0.0000 0.0000 30.2780 0.0000 0.0000 0.0000 0.0000 0.0000 84.5423 -1.4653 1.6119 -0.5079 12.8504 13.9376 -171.6089 -2.9251 167.6612 -51.8199 -7.6616 -17.7468 4.5546 0.0000 0.0000 3.0335 0.0000 0.0000 15.0226 0.4233 -5.0831 9.5341 0.0000 0.0000 7.5845 0.0000 0.0000 5.0708 0.3300 -2.6709 12.3465 0.0000 0.0000 6.8104 0.0000 0.0000 -1.1527 0.2579 -2.4682 12.2477 0.0000 0.0000 6.0561 0.0000 0.0000 -5.0720 0.1273 -1.9713 7.5783 0.0000 0.0000 5.1618 0.0000 0.0000 0.0000 0.0000 0.0000 0.0000 0.0000 0.0000 0.0000 0.0000 0.0000 0.0000 0.0000 0.0000 0.0000 0.0000 0.0000 0.0000 0.0000 0.0000
0.0000 95.0000 0.0000 0.0000 0.0000 0.0000 0.0000 0.0000 0.0000 0.0000 0.0000 0.0000 0.0000 0.0000 0.0000 0.0000 0.0000 0.0000 0.0000 0.0000 0.0000 0.0000 0.0000 0.0000 -79.7912 3.0009 3.5892 -13.2442 -1.2260 2.8446 -139.4145 -50.6900 144.4327 28.3601 -4.3846 5.4264 5.8584 0.0000 0.0000 4.3728 0.0000 0.0000 -33.3105 -0.3210 -16.0746 134.7101 0.0000 0.0000 27.2549 0.0000 0.0000 -21.8623 -2.5498 -17.9183 132.1754 0.0000 0.0000 30.8687 0.0000 0.0000 -12.7233 -3.9642 -18.3071 134.6521 0.0000 0.0000 33.8994 0.0000 0.0000 -2.7983 -5.8840 -18.3097 129.2964 0.0000 0.0000 30.2780 0.0000 0.0000 0.0000 0.0000 0.0000 84.8243 -1.5924 1.7431 -0.6449 13.0262 14.0156 -171.5464 -2.6867 167.3762 -51.8199 -7.6616 -17.7468 4.5546 0.0000 0.0000 3.0335 0.0000 0.0000 15.0226 0.4233 -5.0831 9.5341 0.0000 0.0000 7.5845 0.0000 0.0000 5.0708 0.3300 -2.6709 12.3465 0.0000 0.0000 6.8104 0.0000 0.0000 -1.1527 0.2579 -2.4682 12.2477 0.0000 0.0000 6.0561 0.0000 0.0000 -5.0720 0.1273 -1.9713 7.5783 0.0000 0.0000 5.1618 0.0000 0.0000 0.0000 0.0000 0.0000 0.0000 0.0000 0.0000 0.0000 0.0000 0.0000 0.0000 0.0000 0.0000 0.0000 0.0000 0.0000 0.0000 0.0000 0.0000
0.0000 95.0000 0.0000 0.0000 0.0000 0.0000 0.0000 0.0000 0.0000 0.0000 0.0000 0.0000 0.0000 0.0000 0.0000 0.0000 0.0000 0.0000 0.0000 0.0000 0.0000 0.0000 0.0000 0.0000 -80.1092 2.9078 3.4584 -13.0396 -1.3502 2.9586 -139.5459 -50.7466 144.5272 28.3601 -4.3846 5.4264 5.8584 0.0000 0.0000 4.3728 0.0000 0.0000 -33.3105 -0.3210 -16.0746 134.7101 0.0000 0.0000 27.2549 0.0000 0.0000 -21.8623 -2.5498 -17.9183 132.1754 0.0000 0.0000 30.8687 0.0000 0.0000 -12.7233 -3.9642 -18.3071 134.6521 0.0000 0.0000 33.8994 0.0000 0.0000 -2.7983 -5.8840 -18.3097 129.2964 0.0000 0.0000 30.2780 0.0000 0.0000 0.0000 0.0000 0.0000 84.7392 -1.8383 2.0153 -1.0514 12.9045 13.7820 -171.9958 -2.6462 167.3633 -51.8199 -7.6616 -17.7468 4.5546 0.0000 0.0000 3.0335 0.0000 0.0000 15.0226 0.4233 -5.0831 9.5341 0.0000 0.0000 7.5845 0.0000 0.0000 5.0708 0.3300 -2.6709 12.3465 0.0000 0.0000 6.8104 0.0000 0.0000 -1.1527 0.2579 -2.4682 12.2477 0.0000 0.0000 6.0561 0.0000 0.0000 -5.0720 0.1273 -1.9713 7.5783 0.0000 0.0000 5.1618 0.0000 0.0000 0.0000 0.0000 0.0000 0.0000 0.0000 0.0000 0.0000 0.0000 0.0000 0.0000 0.0000 0.0000 0.0000 0.0000 0.0000 0.0000 0.0000 0.0000
0.0000 95.0000 0.0000 0.0000 0.0000 0.0000 0.0000 0.0000 0.0000 0.0000 0.0000 0.0000 0.0000 0.0000 0.0000 0.0000 0.0000 0.0000 0.0000 0.0000 0.0000 0.0000 0.0000 0.0000 -80.4383 2.5183 2.9778 -13.0718 -1.3456 2.8139 -140.4723 -50.4836 145.7341 28.3601 -4.3846 5.4264 5.8584 0.0000 0.0000 4.3728 0.0000 0.0000 -33.3105 -0.3210 -16.0746 134.7101 0.0000 0.0000 27.2549 0.0000 0.0000 -21.8623 -2.5498 -17.9183 132.1754 0.0000 0.0000 30.8687 0.0000 0.0000 -12.7233 -3.9642 -18.3071 134.6521 0.0000 0.0000 33.8994 0.0000 0.0000 -2.7983 -5.8840 -18.3097 129.2964 0.0000 0.0000 30.2780 0.0000 0.0000 0.0000 0.0000 0.0000 84.6662 -2.1210 2.3282 -1.2052 12.7349 13.5599 -172.1849 -2.5653 167.2819 -51.8199 -7.6616 -17.7468 4.5546 0.0000 0.0000 3.0335 0.0000 0.0000 15.0226 0.4233 -5.0831 9.5341 0.0000 0.0000 7.5845 0.0000 0.0000 5.0708 0.3300 -2.6709 12.3465 0.0000 0.0000 6.8104 0.0000 0.0000 -1.1527 0.2579 -2.4682 12.2477 0.0000 0.0000 6.0561 0.0000 0.0000 -5.0720 0.1273 -1.9713 7.5783 0.0000 0.0000 5.1618 0.0000 0.0000 0.0000 0.0000 0.0000 0.0000 0.0000 0.0000 0.0000 0.0000 0.0000 0.0000 0.0000 0.0000 0.0000 0.0000 0.0000 0.0000 0.0000 0.0000
0.0000 95.0000 0.0000 0.0000 0.0000 0.0000 0.0000 0.0000 0.0000 0.0000 0.0000 0.0000 0.0000 0.0000 0.0000 0.0000 0.0000 0.0000 0.0000 0.0000 0.0000 0.0000 0.0000 0.0000 -80.5602 1.8767 2.2144 -13.1587 -2.3917 4.1775 -140.1594 -50.9816 144.9911 28.3601 -4.3846 5.4264 5.8584 0.0000 0.0000 4.3728 0.0000 0.0000 -33.3105 -0.3210 -16.0746 134.7101 0.0000 0.0000 27.2549 0.0000 0.0000 -21.8623 -2.5498 -17.9183 132.1754 0.0000 0.0000 30.8687 0.0000 0.0000 -12.7233 -3.9642 -18.3071 134.6521 0.0000 0.0000 33.8994 0.0000 0.0000 -2.7983 -5.8840 -18.3097 129.2964 0.0000 0.0000 30.2780 0.0000 0.0000 0.0000 0.0000 0.0000 84.5075 -2.0313 2.2360 -1.6429 12.0419 12.7497 -172.4400 -3.3511 168.2381 -51.8199 -7.6616 -17.7468 4.5546 0.0000 0.0000 3.0335 0.0000 0.0000 15.0226 0.4233 -5.0831 9.5341 0.0000 0.0000 7.5845 0.0000 0.0000 5.0708 0.3300 -2.6709 12.3465 0.0000 0.0000 6.8104 0.0000 0.0000 -1.1527 0.2579 -2.4682 12.2477 0.0000 0.0000 6.0561 0.0000 0.0000 -5.0720 0.1273 -1.9713 7.5783 0.0000 0.0000 5.1618 0.0000 0.0000 0.0000 0.0000 0.0000 0.0000 0.0000 0.0000 0.0000 0.0000 0.0000 0.0000 0.0000 0.0000 0.0000 0.0000 0.0000 0.0000 0.0000 0.0000
0.0000 95.0000 0.0000 0.0000 0.0000 0.0000 0.0000 0.0000 0.0000 0.0000 0.0000 0.0000 0.0000 0.0000 0.0000 0.0000 0.0000 0.0000 0.0000 0.0000 0.0000 0.0000 0.0000 0.0000 -80.3780 2.2203 2.6283 -13.4013 -2.5341 4.5466 -139.6284 -51.5658 143.9437 28.3601 -4.3846 5.4264 5.8584 0.0000 0.0000 4.3728 0.0000 0.0000 -33.3105 -0.3210 -16.0746 134.7101 0.0000 0.0000 27.2549 0.0000 0.0000 -21.8623 -2.5498 -17.9183 132.1754 0.0000 0.0000 30.8687 0.0000 0.0000 -12.7233 -3.9642 -18.3071 134.6521 0.0000 0.0000 33.8994 0.0000 0.0000 -2.7983 -5.8840 -18.3097 129.2964 0.0000 0.0000 30.2780 0.0000 0.0000 0.0000 0.0000 0.0000 83.7285 -1.9273 2.1507 -1.0994 11.4674 12.4492 -172.4806 -3.8315 168.8147 -51.8199 -7.6616 -17.7468 4.5546 0.0000 0.0000 3.0335 0.0000 0.0000 15.0226 0.4233 -5.0831 9.5341 0.0000 0.0000 7.5845 0.0000 0.0000 5.0708 0.3300 -2.6709 12.3465 0.0000 0.0000 6.8104 0.0000 0.0000 -1.1527 0.2579 -2.4682 12.2477 0.0000 0.0000 6.0561 0.0000 0.0000 -5.0720 0.1273 -1.9713 7.5783 0.0000 0.0000 5.1618 0.0000 0.0000 0.0000 0.0000 0.0000 0.0000 0.0000 0.0000 0.0000 0.0000 0.0000 0.0000 0.0000 0.0000 0.0000 0.0000 0.0000 0.0000 0.0000 0.0000
